<svg id="visual" viewBox="0 0 412 915" width="412" height="915" xmlns="http://www.w3.org/2000/svg" xmlns:xlink="http://www.w3.org/1999/xlink" version="1.1"><rect x="0" y="0" width="412" height="915" fill="#ffffff"></rect><path d="M0 693L9.8 692.5C19.7 692 39.3 691 59 700.8C78.7 710.7 98.3 731.3 118 742.5C137.7 753.7 157.3 755.3 176.8 754.3C196.3 753.3 215.7 749.7 235.2 748.3C254.7 747 274.3 748 294 744C313.7 740 333.3 731 353 730C372.7 729 392.3 736 402.2 739.5L412 743L412 916L402.2 916C392.3 916 372.7 916 353 916C333.3 916 313.7 916 294 916C274.3 916 254.7 916 235.2 916C215.7 916 196.3 916 176.8 916C157.3 916 137.7 916 118 916C98.3 916 78.7 916 59 916C39.3 916 19.7 916 9.8 916L0 916Z" fill="#42b8fc"></path><path d="M0 720L9.8 723.8C19.7 727.7 39.3 735.3 59 735.8C78.7 736.3 98.3 729.7 118 726.5C137.7 723.3 157.3 723.7 176.8 731.7C196.3 739.7 215.7 755.3 235.2 763.7C254.7 772 274.3 773 294 767.3C313.7 761.7 333.3 749.3 353 751C372.7 752.7 392.3 768.3 402.2 776.2L412 784L412 916L402.2 916C392.3 916 372.7 916 353 916C333.3 916 313.7 916 294 916C274.3 916 254.7 916 235.2 916C215.7 916 196.3 916 176.8 916C157.3 916 137.7 916 118 916C98.3 916 78.7 916 59 916C39.3 916 19.7 916 9.8 916L0 916Z" fill="#1daaff"></path><path d="M0 752L9.8 750.5C19.7 749 39.3 746 59 744.5C78.7 743 98.3 743 118 751.7C137.7 760.3 157.3 777.7 176.8 778.8C196.3 780 215.7 765 235.2 761C254.7 757 274.3 764 294 771.7C313.7 779.3 333.3 787.7 353 793C372.7 798.3 392.3 800.7 402.2 801.8L412 803L412 916L402.2 916C392.3 916 372.7 916 353 916C333.3 916 313.7 916 294 916C274.3 916 254.7 916 235.2 916C215.7 916 196.3 916 176.8 916C157.3 916 137.7 916 118 916C98.3 916 78.7 916 59 916C39.3 916 19.7 916 9.8 916L0 916Z" fill="#009cff"></path><path d="M0 807L9.8 803.3C19.7 799.7 39.3 792.3 59 792.7C78.7 793 98.3 801 118 806C137.7 811 157.3 813 176.8 807.5C196.3 802 215.7 789 235.2 785.5C254.7 782 274.3 788 294 796C313.7 804 333.3 814 353 812.3C372.7 810.7 392.3 797.3 402.2 790.7L412 784L412 916L402.2 916C392.3 916 372.7 916 353 916C333.3 916 313.7 916 294 916C274.3 916 254.7 916 235.2 916C215.7 916 196.3 916 176.8 916C157.3 916 137.7 916 118 916C98.3 916 78.7 916 59 916C39.3 916 19.7 916 9.8 916L0 916Z" fill="#008cff"></path><path d="M0 848L9.8 847.8C19.7 847.7 39.3 847.3 59 840.8C78.7 834.3 98.3 821.7 118 815.3C137.7 809 157.3 809 176.8 810.3C196.3 811.7 215.7 814.3 235.2 816.2C254.7 818 274.3 819 294 818.2C313.7 817.3 333.3 814.7 353 819.2C372.7 823.7 392.3 835.3 402.2 841.2L412 847L412 916L402.2 916C392.3 916 372.7 916 353 916C333.3 916 313.7 916 294 916C274.3 916 254.7 916 235.2 916C215.7 916 196.3 916 176.8 916C157.3 916 137.7 916 118 916C98.3 916 78.7 916 59 916C39.3 916 19.7 916 9.8 916L0 916Z" fill="#007bff"></path><path d="M0 851L9.8 849.3C19.7 847.7 39.3 844.3 59 842.5C78.7 840.7 98.3 840.3 118 841.8C137.7 843.3 157.3 846.7 176.8 848.3C196.3 850 215.7 850 235.2 850C254.7 850 274.3 850 294 847.5C313.7 845 333.3 840 353 838.8C372.7 837.7 392.3 840.3 402.2 841.7L412 843L412 916L402.2 916C392.3 916 372.7 916 353 916C333.3 916 313.7 916 294 916C274.3 916 254.7 916 235.2 916C215.7 916 196.3 916 176.8 916C157.3 916 137.7 916 118 916C98.3 916 78.7 916 59 916C39.3 916 19.7 916 9.8 916L0 916Z" fill="#0068ff"></path><path d="M0 866L9.8 869.7C19.7 873.3 39.3 880.7 59 884.2C78.7 887.7 98.3 887.3 118 886.3C137.7 885.3 157.3 883.7 176.8 885.2C196.3 886.7 215.7 891.3 235.2 893.5C254.7 895.7 274.3 895.3 294 894.5C313.7 893.7 333.3 892.3 353 887C372.7 881.7 392.3 872.3 402.2 867.7L412 863L412 916L402.2 916C392.3 916 372.7 916 353 916C333.3 916 313.7 916 294 916C274.3 916 254.7 916 235.2 916C215.7 916 196.3 916 176.8 916C157.3 916 137.7 916 118 916C98.3 916 78.7 916 59 916C39.3 916 19.7 916 9.8 916L0 916Z" fill="#1d51ff"></path></svg>